<svg width="40" height="24" viewBox="0 0 40 24" fill="none" xmlns="http://www.w3.org/2000/svg">
<path d="M22.3524 8.11765H17.4857C17.3753 8.11765 17.2857 8.0281 17.2857 7.91765V1.94459C17.2857 1.13095 16.3658 0.657889 15.704 1.1312L9.38961 5.64706M6.79048 7.50588L1.22085 11.4891C1.11122 11.5675 1.10894 11.7297 1.21632 11.8111L15.6814 22.7831C16.3399 23.2826 17.2857 22.8129 17.2857 21.9864V15.3767C17.2857 15.2662 17.3753 15.1767 17.4857 15.1767H24.8857C28.741 15.1765 34.6328 14.5145 38.6166 20.2429C38.7313 20.4078 38.9947 20.324 38.9874 20.1233C38.6235 10.131 30.4771 7.88778 27.0571 8.11765H25.9714" stroke="black" stroke-width="1.3" stroke-linecap="round" stroke-linejoin="round"/>
</svg>
