<svg width="26" height="38" viewBox="0 0 26 38" fill="none" xmlns="http://www.w3.org/2000/svg">
<path d="M6.22868 5.0233C6.41756 5.04815 6.61265 5.07212 6.8141 5.09513M4.93655 4.82374C3.01757 4.47791 1.9403 4.03443 1.41419 3.63818C1.04041 3.35666 1.07922 2.82303 1.46986 2.56543C3.34661 1.32785 9.95199 1 13.3871 1C17.8521 1 20.8642 1.50086 22.7254 2.05124C24.1201 2.46366 24.2325 3.85892 22.8382 4.2728C20.2313 5.04665 16.0274 5.3619 13.6452 5.42348C11.5572 5.42348 9.79162 5.35418 8.30437 5.23747M24.4839 33.2654V33.2654C24.7689 33.2654 25 33.4965 25 33.7815V34.3927C25 34.8184 24.7633 35.2106 24.3664 35.3643C20.5995 36.8228 10.0595 38.2283 1.38739 35.2244C1.15401 35.1436 1 34.9225 1 34.6755V33.7815C1 33.4965 1.23108 33.2654 1.51613 33.2654V33.2654" stroke="black" stroke-width="1.3" stroke-linecap="round" stroke-linejoin="round"/>
<path d="M23.7099 33.2654C22.293 33.7917 20.8156 34.1675 19.3228 34.4229M2.29053 33.2654C5.14092 34.1595 11.1536 35.317 17.2583 34.7017" stroke="black" stroke-width="1.3" stroke-linecap="round" stroke-linejoin="round"/>
<path d="M13.2373 7.76535V8.41535C13.2435 8.41535 13.2498 8.41526 13.2561 8.41508L13.2373 7.76535ZM24.8758 3.08167C24.8758 2.72268 24.5848 2.43167 24.2258 2.43167C23.8668 2.43167 23.5758 2.72268 23.5758 3.08167H24.8758ZM3.55927 7.48114C5.67958 7.97447 8.88141 8.41535 13.2373 8.41535V7.11535C8.96625 7.11535 5.86457 6.68279 3.85387 6.21496L3.55927 7.48114ZM13.2561 8.41508C15.4315 8.35212 19.426 8.07994 22.1143 7.44718L21.8165 6.18175C19.2613 6.78316 15.3751 7.05321 13.2184 7.11563L13.2561 8.41508ZM24.8758 3.50553V3.08167H23.5758V3.50553H24.8758ZM22.1143 7.44718C24.0074 7.00161 24.8758 5.22775 24.8758 3.50553H23.5758C23.5758 4.86124 22.9195 5.92214 21.8165 6.18175L22.1143 7.44718ZM0.35 3.08167C0.35 5.07279 1.47264 6.99564 3.55927 7.48114L3.85387 6.21496C2.49695 5.89924 1.65 4.62607 1.65 3.08167H0.35Z" fill="black"/>
<path d="M15.9677 21.0358L16.3991 20.5496C16.3864 20.5383 16.3733 20.5276 16.3598 20.5173L15.9677 21.0358ZM10.0362 21.0358L9.64416 20.5173C9.62718 20.5302 9.61083 20.5439 9.59519 20.5583L10.0362 21.0358ZM8.23622 21.8844C7.98636 22.1422 7.99277 22.5537 8.25053 22.8035C8.50829 23.0534 8.9198 23.047 9.16966 22.7892L8.23622 21.8844ZM8.19629 23.8395C8.43428 23.5707 8.40933 23.1599 8.14056 22.9219C7.8718 22.6839 7.461 22.7089 7.22302 22.9777L8.19629 23.8395ZM23.2855 9.05475C23.4228 8.72305 23.2652 8.34286 22.9335 8.20557C22.6018 8.06827 22.2216 8.22586 22.0843 8.55756L23.2855 9.05475ZM3.91962 8.55756C3.78232 8.22586 3.40213 8.06827 3.07044 8.20557C2.73874 8.34286 2.58115 8.72305 2.71845 9.05475L3.91962 8.55756ZM22.7052 31.6483C22.8181 31.9891 23.1858 32.1739 23.5266 32.061C23.8674 31.9482 24.0522 31.5804 23.9393 31.2397L22.7052 31.6483ZM2.01794 31.4977C1.90391 31.8381 2.08741 32.2065 2.4278 32.3205C2.7682 32.4346 3.13658 32.2511 3.25061 31.9107L2.01794 31.4977ZM10.3022 17.6287L10.7634 17.1707L10.3022 17.6287ZM9.7849 17.1384L9.32138 17.5941L9.7849 17.1384ZM15.7017 17.6287L16.163 18.0867L15.7017 17.6287ZM16.219 17.1384L15.7555 16.6827L16.219 17.1384ZM15.2405 17.1707C14.8531 17.5608 14.2855 18.3051 14.2855 19.2144H15.5855C15.5855 18.8246 15.8554 18.3964 16.163 18.0867L15.2405 17.1707ZM9.84099 18.0867C10.1486 18.3964 10.4185 18.8246 10.4185 19.2144H11.7185C11.7185 18.3051 11.1509 17.5608 10.7634 17.1707L9.84099 18.0867ZM16.3598 20.5173C16.2411 20.4276 16.0338 20.2318 15.8614 19.9762C15.6874 19.7184 15.5855 19.4546 15.5855 19.2144H14.2855C14.2855 19.8068 14.5276 20.3236 14.7837 20.7033C15.0414 21.0852 15.3503 21.3838 15.5757 21.5542L16.3598 20.5173ZM10.4283 21.5542C10.6537 21.3838 10.9625 21.0852 11.2202 20.7033C11.4764 20.3236 11.7185 19.8068 11.7185 19.2144H10.4185C10.4185 19.4546 10.3165 19.7184 10.1426 19.9762C9.97012 20.2318 9.76286 20.4276 9.64416 20.5173L10.4283 21.5542ZM9.16966 22.7892C9.58038 22.3655 10.0158 21.9395 10.4773 21.5133L9.59519 20.5583C9.11603 21.0009 8.66346 21.4437 8.23622 21.8844L9.16966 22.7892ZM22.0843 8.55756C21.5403 9.872 19.8639 12.5036 15.7555 16.6827L16.6826 17.5941C20.8303 13.375 22.6456 10.6007 23.2855 9.05475L22.0843 8.55756ZM2.71845 9.05475C3.35835 10.6007 5.1736 13.375 9.32138 17.5941L10.2484 16.6827C6.14 12.5036 4.46369 9.872 3.91962 8.55756L2.71845 9.05475ZM23.9393 31.2397C23.1446 28.8395 21.0598 24.685 16.3991 20.5496L15.5363 21.522C20.0163 25.4971 21.9783 29.4531 22.7052 31.6483L23.9393 31.2397ZM3.25061 31.9107C3.83277 30.1729 5.27937 27.1336 8.19629 23.8395L7.22302 22.9777C4.18815 26.405 2.65448 29.5976 2.01794 31.4977L3.25061 31.9107ZM10.7634 17.1707C10.6673 17.0739 10.5678 16.983 10.4826 16.9049C10.3934 16.823 10.3179 16.7534 10.2484 16.6827L9.32138 17.5941C9.41795 17.6923 9.51765 17.7838 9.60385 17.8629C9.69406 17.9456 9.77018 18.0154 9.84099 18.0867L10.7634 17.1707ZM16.163 18.0867C16.2338 18.0154 16.3099 17.9456 16.4001 17.8629C16.4863 17.7838 16.586 17.6923 16.6826 17.5941L15.7555 16.6827C15.686 16.7534 15.6105 16.823 15.5213 16.9049C15.4361 16.983 15.3366 17.0739 15.2405 17.1707L16.163 18.0867Z" fill="black"/>
<path d="M6.99604 31.8993L7.1873 31.2781C7.17714 31.275 7.16691 31.2721 7.15661 31.2695L6.99604 31.8993ZM8.93147 27.0084L9.14224 27.6232L9.14224 27.6232L8.93147 27.0084ZM8.04294 27.5391L7.57787 27.085L7.57787 27.085L8.04294 27.5391ZM6.38143 31.5273L6.91024 31.1494L6.91024 31.1494L6.38143 31.5273ZM20.0735 31.0596L19.4345 30.9406L20.0735 31.0596ZM18.7397 32.0402L18.584 31.4091L18.7397 32.0402ZM13.4179 25.4988C14.1685 26.0799 15.2385 26.8093 16.3417 27.3125L16.8812 26.1298C15.9029 25.6835 14.9211 25.0185 14.2137 24.4709L13.4179 25.4988ZM18.2147 28.5013C18.5896 28.9388 18.937 29.4192 19.1686 29.8764C19.4089 30.3507 19.4777 30.7081 19.4345 30.9406L20.7125 31.1786C20.8339 30.5267 20.6145 29.8539 20.3283 29.2889C20.0333 28.7067 19.6158 28.1386 19.2019 27.6555L18.2147 28.5013ZM18.584 31.4091C16.6101 31.896 11.9195 32.7351 7.1873 31.2781L6.80477 32.5206C11.8703 34.0801 16.8354 33.1794 18.8954 32.6713L18.584 31.4091ZM12.0441 24.4707C11.1675 25.1495 9.88952 25.9928 8.72069 26.3935L9.14224 27.6232C10.5127 27.1535 11.9244 26.2075 12.84 25.4986L12.0441 24.4707ZM7.57787 27.085C7.01588 27.6605 6.36336 28.4467 5.94718 29.2542C5.5559 30.0134 5.24423 31.0541 5.85263 31.9053L6.91024 31.1494C6.7648 30.9459 6.7445 30.5449 7.10273 29.8498C7.43607 29.203 7.99123 28.5224 8.50802 27.9932L7.57787 27.085ZM5.85263 31.9053C6.13932 32.3064 6.55124 32.4567 6.83546 32.5292L7.15661 31.2695C6.98278 31.2252 6.93174 31.1794 6.91024 31.1494L5.85263 31.9053ZM8.72069 26.3935C8.34231 26.5232 7.92875 26.7256 7.57787 27.085L8.50802 27.9932C8.66878 27.8285 8.87838 27.7137 9.14224 27.6232L8.72069 26.3935ZM19.4345 30.9406C19.4241 30.9965 19.3893 31.0704 19.2388 31.1641C19.0789 31.2637 18.852 31.343 18.584 31.4091L18.8954 32.6713C19.2053 32.5948 19.5908 32.4764 19.9261 32.2676C20.2707 32.053 20.6139 31.7079 20.7125 31.1786L19.4345 30.9406ZM16.3417 27.3125C17.1274 27.6709 17.7743 27.9872 18.2147 28.5013L19.2019 27.6555C18.5461 26.89 17.6284 26.4706 16.8812 26.1298L16.3417 27.3125ZM14.2137 24.4709C13.5781 23.9788 12.6801 23.9784 12.0441 24.4707L12.84 25.4986C13.0071 25.3693 13.2505 25.3692 13.4179 25.4988L14.2137 24.4709Z" fill="black"/>
</svg>
