<svg width="31" height="27" viewBox="0 0 31 27" fill="none" xmlns="http://www.w3.org/2000/svg">
<path d="M25.9804 2.8839C26.8889 2.04669 28.9482 0.874597 29.9173 2.8839C30.2201 4.24431 29.8567 7.46744 25.9804 9.47674M25.7603 2.8839C24.8518 2.04669 22.7926 0.874597 21.8235 2.8839C21.5207 4.24431 21.8841 7.46744 25.7603 9.47674M25.9804 10.1047V22.9767H29.6144M25.9804 19H28.3523M25.9804 16.3837H29.6144M5.77975 5.84615V4.76744C5.77975 3.51163 6.68825 1 10.3222 1C11.6345 1 14.3196 1.75349 14.5619 4.76744V10.1047M10.3222 15.7558C10.8269 15.7558 11.8969 16.0698 12.1392 17.3256C12.2401 17.6395 12.2603 18.5186 11.5335 19.5233L11.7584 20.5723C11.9543 21.4866 11.2573 22.3488 10.3222 22.3488V22.3488M10.3733 15.7558C9.86859 15.7558 8.79863 16.0698 8.55637 17.3256C8.45542 17.6395 8.43523 18.5186 9.16203 19.5233L8.93718 20.5723C8.74119 21.4866 9.43819 22.3488 10.3733 22.3488V22.3488M10.3222 12.9302C11.2307 11.3605 13.9562 8.84884 17.5902 11.3605C19.2053 12.8256 21.4059 16.9488 17.2874 21.7209L14.3398 24.3782C12.0568 26.4363 8.58771 26.4363 6.30477 24.3782L3.357 21.7207C-0.761533 16.9486 1.43905 12.8254 3.05416 11.3603C6.68816 8.84863 9.41374 11.3605 10.3222 12.9302Z" stroke="white" stroke-width="1.3" stroke-linecap="round" stroke-linejoin="round"/>
</svg>
