<svg width="28" height="37" viewBox="0 0 28 37" fill="none" xmlns="http://www.w3.org/2000/svg">
<mask id="path-1-inside-1_108_11345" fill="white">
<path d="M14.5 20C12.567 20 11 21.539 11 23.4375C11 24.3498 11.3618 25.179 11.9522 25.7944C12.3153 26.1729 12.6026 26.6443 12.6026 27.1689V29.1763C12.6026 30.1835 13.4191 31 14.4263 31C15.4335 31 16.25 30.1835 16.25 29.1763V27.2809C16.25 26.7457 16.5561 26.2694 16.9427 25.8994C17.595 25.275 18 24.4027 18 23.4375C18 21.539 16.433 20 14.5 20Z"/>
</mask>
<path d="M11.9522 25.7944L11.0141 26.6944L11.0141 26.6944L11.9522 25.7944ZM16.9427 25.8994L17.8417 26.8385V26.8385L16.9427 25.8994ZM12.3 23.4375C12.3 22.279 13.2628 21.3 14.5 21.3V18.7C11.8712 18.7 9.7 20.7991 9.7 23.4375H12.3ZM14.5 21.3C15.7372 21.3 16.7 22.279 16.7 23.4375H19.3C19.3 20.7991 17.1288 18.7 14.5 18.7V21.3ZM12.8903 24.8944C12.5206 24.5091 12.3 23.998 12.3 23.4375H9.7C9.7 24.7015 10.203 25.849 11.0141 26.6944L12.8903 24.8944ZM11.3026 27.1689V29.1763H13.9026V27.1689H11.3026ZM16.7 23.4375C16.7 24.03 16.4532 24.5683 16.0438 24.9603L17.8417 26.8385C18.7367 25.9817 19.3 24.7754 19.3 23.4375H16.7ZM17.55 29.1763V27.2809H14.95V29.1763H17.55ZM16.0438 24.9603C15.5357 25.4466 14.95 26.24 14.95 27.2809H17.55C17.55 27.2674 17.5529 27.2247 17.5964 27.1438C17.642 27.0589 17.7217 26.9533 17.8417 26.8385L16.0438 24.9603ZM14.4263 32.3C16.1515 32.3 17.55 30.9015 17.55 29.1763H14.95C14.95 29.4655 14.7155 29.7 14.4263 29.7V32.3ZM11.3026 29.1763C11.3026 30.9015 12.7011 32.3 14.4263 32.3V29.7C14.1371 29.7 13.9026 29.4655 13.9026 29.1763H11.3026ZM11.0141 26.6944C11.1313 26.8165 11.2092 26.9264 11.2545 27.0156C11.298 27.1011 11.3026 27.1492 11.3026 27.1689H13.9026C13.9026 26.1631 13.3601 25.3841 12.8903 24.8944L11.0141 26.6944Z" fill="black" mask="url(#path-1-inside-1_108_11345)"/>
<path d="M14 36.65C14.359 36.65 14.65 36.359 14.65 36C14.65 35.641 14.359 35.35 14 35.35V36.65ZM19 35.35C18.641 35.35 18.35 35.641 18.35 36C18.35 36.359 18.641 36.65 19 36.65V35.35ZM6 15.65H22V14.35H6V15.65ZM26.35 20V31H27.65V20H26.35ZM1.65 31V20H0.35V31H1.65ZM14 35.35H6V36.65H14V35.35ZM22 35.35H19V36.65H22V35.35ZM0.35 31C0.35 34.1204 2.87959 36.65 6 36.65V35.35C3.59756 35.35 1.65 33.4024 1.65 31H0.35ZM26.35 31C26.35 33.4024 24.4024 35.35 22 35.35V36.65C25.1204 36.65 27.65 34.1204 27.65 31H26.35ZM22 15.65C24.4024 15.65 26.35 17.5976 26.35 20H27.65C27.65 16.8796 25.1204 14.35 22 14.35V15.65ZM6 14.35C2.87959 14.35 0.35 16.8796 0.35 20H1.65C1.65 17.5976 3.59756 15.65 6 15.65V14.35Z" fill="black"/>
<path d="M14.0874 1C15.8387 1 19.0508 1.8635 21.1916 4.85096C22.9697 7.3323 23 10.686 23 13.8179V15M13.9126 1C12.1613 1 8.9492 1.8635 6.80843 4.85096C5.03035 7.3323 5 10.686 5 13.8179V15" stroke="black" stroke-width="1.3" stroke-linecap="round" stroke-linejoin="round"/>
</svg>
